<?xml version="1.0" standalone="no"?><!DOCTYPE svg PUBLIC "-//W3C//DTD SVG 1.1//EN" "http://www.w3.org/Graphics/SVG/1.1/DTD/svg11.dtd"><svg class="icon" width="200px" height="200.00px" viewBox="0 0 1024 1024" version="1.1" xmlns="http://www.w3.org/2000/svg"><path d="M424 1000a96 96 0 1 1 96-96 96 96 0 0 1-96 96z m0-128a32 32 0 1 0 32 32 32 32 0 0 0-32-32z m464 128a96 96 0 1 1 96-96 96 96 0 0 1-96 96z m0-128a32 32 0 1 0 32 32 32 32 0 0 0-32-32z" fill="#A1BAC4" /><path d="M1023.584 133.744L960 589.488c-0.04 0.24-0.144 0.448-0.192 0.688a31.368 31.368 0 0 1-26.296 31.824l-520 49.6a31.944 31.944 0 0 1-37.072-25.376 31.352 31.352 0 0 1 25.96-36.232l496-45.6L954.344 160H272a32 32 0 1 1 0-64h720c0.408 0 0.8 0.104 1.192 0.12a32 32 0 0 1 4.168 0.312c0.208 0 0.392 0.128 0.6 0.168a30.896 30.896 0 0 1 3.576 1.008c0.8 0.256 1.648 0.44 2.4 0.752a31.848 31.848 0 0 1 4 2.056c0.496 0.288 1.032 0.504 1.512 0.8a31.816 31.816 0 0 1 3.76 2.984c0.344 0.304 0.736 0.552 1.064 0.872a32.4 32.4 0 0 1 2.992 3.496c0.328 0.424 0.712 0.8 1.016 1.232a32.384 32.384 0 0 1 1.792 3.152c0.424 0.8 0.92 1.536 1.28 2.352 0.272 0.632 0.432 1.32 0.664 1.976a31.392 31.392 0 0 1 1.296 4.176c0 0.168 0 0.352 0.064 0.528a31.728 31.728 0 0 1 0.208 11.76zM992 696a32 32 0 1 1 0 64H328a31.536 31.536 0 0 1-3.784-0.384 31.656 31.656 0 0 1-34.448-23.368L126.856 88H32a32 32 0 1 1 0-64h120c0.88 0 1.704 0.192 2.56 0.256 0.664 0.064 1.32 0.096 1.976 0.2a31.824 31.824 0 0 1 27.264 29.512L345.144 696H992z" fill="#325FD3" /></svg>