<?xml version="1.0" standalone="no"?><!DOCTYPE svg PUBLIC "-//W3C//DTD SVG 1.1//EN" "http://www.w3.org/Graphics/SVG/1.1/DTD/svg11.dtd"><svg class="icon" width="200px" height="200.00px" viewBox="0 0 1024 1024" version="1.1" xmlns="http://www.w3.org/2000/svg"><path fill="#333333" d="M936.634182 168.634182C959.185455 168.634182 977.454545 186.903273 977.454545 209.454545l-48.872727 395.636364v2.327273A44.218182 44.218182 0 0 1 884.363636 651.636364l-581.818181 46.545454v23.272727a23.272727 23.272727 0 0 0 23.272727 23.272728h543.418182a34.909091 34.909091 0 0 1 0 69.818182H302.545455a69.818182 69.818182 0 0 1-69.818182-69.818182L162.909091 162.909091a46.545455 46.545455 0 0 0-46.545455-46.545455H34.909091a34.909091 34.909091 0 0 1 0-69.818181H116.363636a116.363636 116.363636 0 0 1 116.363637 116.363636l698.181818 5.725091h5.725091zM393.309091 232.727273a23.272727 23.272727 0 0 0-23.272727 23.272727v325.818182a23.272727 23.272727 0 0 0 23.272727 23.272727h2.327273a23.272727 23.272727 0 0 0 23.272727-23.272727V256a23.272727 23.272727 0 0 0-23.272727-23.272727h-2.327273z m186.181818 1.559272a23.272727 23.272727 0 0 0-23.272727 23.272728V558.545455a23.272727 23.272727 0 0 0 23.272727 23.272727h2.327273a23.272727 23.272727 0 0 0 23.272727-23.272727V257.559273a23.272727 23.272727 0 0 0-23.272727-23.272728h-2.327273z m188.509091 0a23.272727 23.272727 0 0 0-23.272727 23.272728v276.154182a23.272727 23.272727 0 0 0 23.272727 23.272727h2.327273a23.272727 23.272727 0 0 0 23.272727-23.272727V257.559273a23.272727 23.272727 0 0 0-23.272727-23.272728H768zM791.272727 861.090909c-38.493091 0-69.818182 31.325091-69.818182 69.818182s31.348364 69.818182 69.818182 69.818182 69.818182-31.325091 69.818182-69.818182-31.325091-69.818182-69.818182-69.818182zM349.090909 861.090909c-38.493091 0-69.818182 31.325091-69.818182 69.818182s31.348364 69.818182 69.818182 69.818182 69.818182-31.325091 69.818182-69.818182-31.325091-69.818182-69.818182-69.818182z"  /></svg>