<?xml version="1.0" standalone="no"?><!DOCTYPE svg PUBLIC "-//W3C//DTD SVG 1.1//EN" "http://www.w3.org/Graphics/SVG/1.1/DTD/svg11.dtd"><svg class="icon" width="200px" height="200.00px" viewBox="0 0 1024 1024" version="1.1" xmlns="http://www.w3.org/2000/svg"><path d="M848 1004H176c-55.14 0-100-44.86-100-100V332.28l61.72-12.49 9.15 45.21H156v539c0 11.03 8.97 20 20 20h672c11.03 0 20-8.97 20-20V354h10.48v-40H948v590c0 55.14-44.86 100-100 100z" fill="#333333" /><path d="M517.01 9.231l505.262 358.927-51.847 72.985-505.26-358.927z" fill="#333333" /><path d="M57.08 454.19L569.67 85.63 514.98 7.89 2.39 376.45z" fill="#333333" /><path d="M576 791H448c-77.2 0-140-62.8-140-140V523c0-77.2 62.8-140 140-140h128c77.2 0 140 62.8 140 140v128c0 77.2-62.8 140-140 140zM448 463c-33.08 0-60 26.92-60 60v128c0 33.08 26.92 60 60 60h128c33.08 0 60-26.92 60-60V523c0-33.08-26.92-60-60-60H448z" fill="#2E91E5" /></svg>