<?xml version="1.0" standalone="no"?><!DOCTYPE svg PUBLIC "-//W3C//DTD SVG 1.1//EN" "http://www.w3.org/Graphics/SVG/1.1/DTD/svg11.dtd"><svg class="icon" width="200px" height="200.00px" viewBox="0 0 1024 1024" version="1.1" xmlns="http://www.w3.org/2000/svg"><path fill="#333333" d="M848 1004H176c-55.14 0-100-44.51-100-99.21V322h69.65v40H156v542.79c0 10.59 8.97 19.21 20 19.21h672c11.03 0 20-8.62 20-19.21V362h10.48v-40H948v582.79c0 54.7-44.86 99.21-100 99.21z"  /><path fill="#333333" d="M517.003 9.227l505.261 358.926-55.547 78.194-505.26-358.926z"  /><path fill="#333333" d="M573.915 93.213L61.13 457.483 2.2 374.53 514.987 10.258zM576 791H448c-77.2 0-140-62.8-140-140V523c0-77.2 62.8-140 140-140h128c77.2 0 140 62.8 140 140v128c0 77.2-62.8 140-140 140zM448 463c-33.08 0-60 26.92-60 60v128c0 33.08 26.92 60 60 60h128c33.08 0 60-26.92 60-60V523c0-33.08-26.92-60-60-60H448z"  /></svg>