<?xml version="1.0" standalone="no"?><!DOCTYPE svg PUBLIC "-//W3C//DTD SVG 1.1//EN" "http://www.w3.org/Graphics/SVG/1.1/DTD/svg11.dtd"><svg class="icon" width="200px" height="200.00px" viewBox="0 0 1024 1024" version="1.1" xmlns="http://www.w3.org/2000/svg"><path d="M955.566829 1024H71.430244V717.299512h82.139785v81.92H153.350244v142.860488h720.296585V760.257561l-2.167883-40.900059 19.930537-1.058965H955.566829z" fill="#333333" /><path d="M366.142439 708.308293h291.715122v91.910244H366.142439z" fill="#2E91E5" /><path d="M325.781854 487.264156c-32.298459-25.664937-57.543805-56.265054-75.026732-90.9312C232.522927 360.158283 223.281951 320.586927 223.281951 278.727805c0-37.633249 7.80238-74.1376 23.197347-108.494049 14.785561-33.007766 35.904937-62.608859 62.768702-87.974088C364.064468 30.500215 436.773463 1.998049 513.998049 1.998049c77.224585 0 149.93358 28.502166 204.750049 80.251629 26.863766 25.365229 47.983141 54.966322 62.768702 87.974088C796.911766 204.590205 804.714146 241.094556 804.714146 278.727805c0 37.223649-8.331863 73.777951-24.775805 108.653893-15.125229 32.088663-36.384468 61.310127-63.188292 86.86517l-55.156137-57.843512C702.354107 377.551298 724.792195 328.659044 724.792195 278.727805c0-108.52402-94.557659-196.807805-210.794146-196.807805s-210.794146 88.283785-210.794147 196.807805c0 57.903454 24.99559 108.384156 72.299396 145.957463l-49.721444 62.578888z" fill="#333333" /><path d="M412.317346 461.309502L138.125112 771.66642a3.876215 3.876215 0 0 1-5.474653 0.339668l-59.731669-52.768468a3.876215 3.876215 0 0 1-0.339668-5.474654L346.771356 403.406049a3.876215 3.876215 0 0 1 5.474654-0.339669l59.731668 52.768469a3.876215 3.876215 0 0 1 0.339668 5.474653zM613.930459 463.777093l274.182243 310.346927a5.149971 5.149971 0 0 0 7.262908 0.44956l57.833522-51.090107a5.149971 5.149971 0 0 0 0.449561-7.262907L679.476449 405.873639a5.149971 5.149971 0 0 0-7.262908-0.449561l-57.833521 51.090107a5.149971 5.149971 0 0 0-0.449561 7.262908z" fill="#333333" /></svg>